HIERARCHY
ROOT hip
{
	OFFSET 0.000000 0.000000 0.000000
	CHANNELS 6 Xposition Yposition Zposition Xrotation Zrotation Yrotation 
	JOINT abdomen
	{
		OFFSET 0.000000 3.422050 0.000000
		CHANNELS 3 Xrotation Zrotation Yrotation 
		JOINT chest
		{
			OFFSET 0.000000 8.486693 -0.684411
			CHANNELS 3 Xrotation Zrotation Yrotation 
			JOINT neck
			{
				OFFSET 0.000000 10.266162 -0.273764
				CHANNELS 3 Xrotation Zrotation Yrotation 
				JOINT head
				{
					OFFSET 0.000000 3.148285 0.000000
					CHANNELS 3 Xrotation Zrotation Yrotation 
					End Site
					{
						OFFSET 0.000000 3.148289 0.000000
					}
				}
			}
			JOINT lCollar
			{
				OFFSET 3.422053 6.707223 -0.821293
				CHANNELS 3 Yrotation Zrotation Xrotation 
				JOINT lShldr
				{
					OFFSET 3.285171 0.000000 0.000000
					CHANNELS 3 Zrotation Yrotation Xrotation 
					JOINT lForeArm
					{
						OFFSET 10.129278 0.000000 0.000000
						CHANNELS 3 Yrotation Zrotation Xrotation 
						JOINT lHand
						{
							OFFSET 8.486692 0.000000 0.000000
							CHANNELS 3 Zrotation Yrotation Xrotation 
							End Site
							{
								OFFSET 4.106464 0.000000 0.000000
							}
						}
					}
				}
			}
			JOINT rCollar
			{
				OFFSET -3.558935 6.707223 -0.821293
				CHANNELS 3 Yrotation Zrotation Xrotation 
				JOINT rShldr
				{
					OFFSET -3.148289 0.000000 0.000000
					CHANNELS 3 Zrotation Yrotation Xrotation 
					JOINT rForeArm
					{
						OFFSET -10.266159 0.000000 0.000000
						CHANNELS 3 Yrotation Zrotation Xrotation 
						JOINT rHand
						{
							OFFSET -8.349810 0.000000 0.000000
							CHANNELS 3 Zrotation Yrotation Xrotation 
							End Site
							{
								OFFSET -4.106464 0.000000 0.000000
							}
						}
					}
				}
			}
		}
	}
	JOINT lThigh
	{
		OFFSET 5.338403 -1.642589 1.368821
		CHANNELS 3 Xrotation Zrotation Yrotation 
		JOINT lShin
		{
			OFFSET -2.053232 -20.121670 0.000000
			CHANNELS 3 Xrotation Zrotation Yrotation 
			JOINT lFoot
			{
				OFFSET 0.000000 -19.300380 -1.231939
				CHANNELS 3 Xrotation Yrotation Zrotation 
				End Site
				{
					OFFSET 0.000000 -2.463878 4.653993
				}
			}
		}
	}
	JOINT rThigh
	{
		OFFSET -5.338403 -1.642589 1.368821
		CHANNELS 3 Xrotation Zrotation Yrotation 
		JOINT rShin
		{
			OFFSET 2.053232 -20.121670 0.000000
			CHANNELS 3 Xrotation Zrotation Yrotation 
			JOINT rFoot
			{
				OFFSET 0.000000 -19.300380 -1.231939
				CHANNELS 3 Xrotation Yrotation Zrotation 
				End Site
				{
					OFFSET 0.000000 -2.463878 4.653993
				}
			}
		}
	}
}
MOTION
Frames: 20
Frame Time: 0.099947
0.000000 43.528500 0.000000 0.000000 0.000000 0.000000 0.000000 0.000000 0.000000 0.000000 0.000000 0.000000 0.000000 0.000000 0.000000 0.000000 0.000000 0.000000 0.000000 0.000000 0.000000 0.000000 0.000000 0.000000 0.000000 0.000000 0.000000 0.000000 0.000000 0.000000 0.000000 0.000000 0.000000 0.000000 0.000000 0.000000 0.000000 0.000000 0.000000 0.000000 0.000000 0.000000 0.000000 0.000000 0.000000 0.000000 0.000000 0.000000 0.000000 0.000000 0.000000 0.000000 0.000000 0.000000 0.000000 0.000000 0.000000 0.000000 0.000000 0.000000 
9.999443 34.838684 -39.388023 2.999769 -6.999762 111.998039 3.998284 4.997085 0.999400 9.997990 9.998402 -0.002413 17.997646 9.999015 -36.002522 3.996450 4.996839 -0.002428 0.000000 0.000000 0.000000 -95.006790 -50.001049 2.002804 -130.001984 5.001027 -20.001692 24.997353 -12.001267 -0.003005 0.000000 0.000000 0.000000 76.995735 36.998672 -0.002686 100.996109 -0.000001 0.000001 -15.001833 -5.001919 -0.002980 -12.002582 -7.000328 -0.001224 32.000034 4.997984 -12.001928 24.999689 -11.001664 -0.002333 -42.002899 -17.002590 -15.000941 71.996742 0.000001 -0.000001 0.000000 14.998176 0.000000 
9.999443 34.838684 -39.388023 2.999769 -6.999762 111.998039 3.998284 4.997086 0.999400 9.997990 9.998403 -0.002413 17.997646 9.999015 -36.002522 3.353079 4.996896 -0.002352 0.000000 0.000000 0.000000 -95.006790 -50.001053 2.002801 -130.001999 5.001029 -20.001694 24.997353 -12.001267 -0.003005 0.000000 0.000000 0.000000 77.023811 38.675064 -0.020755 100.248795 -0.000001 0.000001 -14.573698 -4.923166 -0.553168 -12.002582 -7.000329 -0.001224 32.000034 4.997985 -12.001929 24.999691 -11.001664 -0.002333 -41.859333 -17.009800 -15.087354 71.996727 0.000004 0.021200 0.000000 14.998176 0.000000 
9.999443 34.838684 -39.388023 2.999768 -6.999761 111.998039 3.998284 4.997084 0.999400 9.997989 9.998402 -0.002413 17.997646 9.999014 -36.002518 2.709053 4.996956 -0.002277 0.000000 0.000000 0.000000 -95.006790 -50.001049 2.002804 -130.001984 5.001027 -20.001692 24.997351 -12.001267 -0.003005 0.000000 0.000000 0.000000 77.052025 40.359650 -0.038271 99.500786 -0.000001 0.000001 -14.146066 -4.840260 -1.103101 -12.002582 -7.000328 -0.001224 32.000034 4.997984 -12.001928 24.999689 -11.001664 -0.002333 -41.715706 -17.016804 -15.173801 71.996872 0.000006 0.042401 0.000000 14.998176 0.000000 
9.999443 34.838684 -39.388023 2.999769 -6.999762 111.998039 3.998285 4.997086 0.999400 9.997990 9.998402 -0.002413 17.997646 9.999015 -36.002525 2.064410 4.997015 -0.002202 0.000000 0.000000 0.000000 -95.006790 -50.001053 2.002808 -130.001984 5.001027 -20.001692 24.997355 -12.001267 -0.003005 0.000000 0.000000 0.000000 77.080399 42.051731 -0.055197 98.752136 -0.000001 0.000001 -13.719008 -4.753206 -1.652709 -12.002583 -7.000329 -0.001224 32.000038 4.997985 -12.001929 24.999689 -11.001664 -0.002333 -41.572048 -17.023605 -15.260292 71.996941 0.000009 0.063602 0.000000 14.998177 0.000000 
9.999443 34.838684 -39.388023 2.999769 -6.999761 111.998039 3.998284 4.997085 0.999400 9.997990 9.998402 -0.002413 17.997646 9.999015 -36.002522 1.419193 4.997077 -0.002128 0.000000 0.000000 0.000000 -95.006790 -50.001045 2.002807 -130.001984 5.001026 -20.001690 24.997351 -12.001266 -0.003005 0.000000 0.000000 0.000000 77.108978 43.750633 -0.071502 98.002914 -0.000001 0.000001 -13.292604 -4.662022 -2.201923 -12.002580 -7.000327 -0.001224 32.000031 4.997984 -12.001927 24.999687 -11.001664 -0.002333 -41.428341 -17.030201 -15.346826 71.996994 0.000011 0.084803 0.000000 14.998176 0.000000 
9.999443 34.838684 -39.388023 2.999769 -6.999762 111.998039 3.998284 4.997085 0.999400 9.997990 9.998402 -0.002413 17.997646 9.999015 -36.002522 0.773440 4.997139 -0.002055 0.000000 0.000000 0.000000 -95.006790 -50.001049 2.002804 -130.001984 5.001027 -20.001692 24.997353 -12.001267 -0.003005 0.000000 0.000000 0.000000 77.137840 45.455635 -0.087136 97.253174 -0.000001 0.000001 -12.866914 -4.566717 -2.750673 -12.002582 -7.000328 -0.001224 32.000034 4.997984 -12.001928 24.999689 -11.001664 -0.002333 -41.284584 -17.036587 -15.433390 71.997078 0.000014 0.106004 0.000000 14.998176 0.000000 
9.999443 34.838684 -39.388023 2.999769 -6.999762 111.998039 3.998285 4.997085 0.999400 9.997990 9.998403 -0.002413 17.997646 9.999015 -36.002522 0.127192 4.997201 -0.001982 0.000000 0.000000 0.000000 -95.006805 -50.001057 2.002804 -130.001999 5.001028 -20.001696 24.997355 -12.001269 -0.003005 0.000000 0.000000 0.000000 77.167015 47.166016 -0.102043 96.502975 -0.000001 0.000001 -12.442008 -4.467305 -3.298888 -12.002582 -7.000328 -0.001224 32.000038 4.997984 -12.001929 24.999693 -11.001666 -0.002333 -41.140781 -17.042767 -15.519999 71.997139 0.000016 0.127205 0.000000 14.998176 0.000000 
9.999443 34.838684 -39.388023 2.999769 -6.999762 111.998039 3.998284 4.997085 0.999400 9.997990 9.998402 -0.002413 17.997646 9.999015 -36.002522 -0.519510 4.997264 -0.001910 0.000000 0.000000 0.000000 -95.006790 -50.001049 2.002804 -130.001984 5.001028 -20.001692 24.997351 -12.001267 -0.003005 0.000000 0.000000 0.000000 77.196571 48.881035 -0.116175 95.752396 -0.000001 0.000001 -12.017960 -4.363804 -3.846502 -12.002582 -7.000328 -0.001224 32.000034 4.997984 -12.001928 24.999689 -11.001664 -0.002333 -40.996944 -17.048742 -15.606643 71.997215 0.000018 0.148406 0.000000 14.998176 0.000000 
9.999443 34.838684 -39.388023 2.999769 -6.999762 111.998039 3.998284 4.997085 0.999400 9.997990 9.998402 -0.002413 17.997646 9.999015 -36.002525 -1.166626 4.997330 -0.001838 0.000000 0.000000 0.000000 -95.006790 -50.001053 2.002808 -130.001999 5.001029 -20.001694 24.997355 -12.001267 -0.003005 0.000000 0.000000 0.000000 77.226601 50.599934 -0.129451 95.001495 -0.000001 0.000001 -11.594832 -4.256233 -4.393446 -12.002582 -7.000329 -0.001224 32.000034 4.997984 -12.001928 24.999691 -11.001664 -0.002333 -40.853043 -17.054504 -15.693316 71.997284 0.000021 0.169607 0.000000 14.998176 0.000000 
9.999443 34.838684 -39.388023 2.999768 -6.999761 111.998039 3.998284 4.997085 0.999400 9.997990 9.998402 -0.002413 17.997646 9.999014 -36.002522 -1.814116 4.997396 -0.001768 0.000000 0.000000 0.000000 -95.006775 -50.001041 2.002804 -130.001984 5.001027 -20.001692 24.997353 -12.001267 -0.003005 0.000000 0.000000 0.000000 77.257202 52.321964 -0.141773 94.250328 -0.000001 0.000001 -11.172701 -4.144611 -4.939654 -12.002582 -7.000328 -0.001224 32.000034 4.997984 -12.001928 24.999687 -11.001664 -0.002333 -40.709118 -17.060068 -15.780028 71.997345 0.000023 0.190809 0.000000 14.998177 0.000000 
9.999443 34.838684 -39.388023 2.999769 -6.999762 111.998039 3.998284 4.997085 0.999400 9.997990 9.998402 -0.002413 17.997646 9.999015 -36.002522 -2.461936 4.997461 -0.001697 0.000000 0.000000 0.000000 -95.006790 -50.001049 2.002804 -130.001984 5.001027 -20.001692 24.997353 -12.001267 -0.003005 0.000000 0.000000 0.000000 77.288445 54.046329 -0.153059 93.498985 -0.000001 0.000001 -10.751625 -4.028959 -5.485057 -12.002582 -7.000329 -0.001224 32.000038 4.997985 -12.001929 24.999689 -11.001664 -0.002333 -40.565151 -17.065420 -15.866777 71.997406 0.000025 0.212010 0.000000 14.998176 0.000000 
9.999443 34.838684 -39.388023 2.999769 -6.999762 111.998039 3.998284 4.997085 0.999400 9.997990 9.998401 -0.002413 17.997646 9.999013 -36.002514 -3.110048 4.997528 -0.001628 0.000000 0.000000 0.000000 -95.006790 -50.001049 2.002804 -130.001968 5.001027 -20.001690 24.997349 -12.001266 -0.003005 0.000000 0.000000 0.000000 77.320503 55.772274 -0.163166 92.747498 -0.000001 0.000001 -10.331672 -3.909301 -6.029593 -12.002580 -7.000328 -0.001224 32.000027 4.997984 -12.001926 24.999687 -11.001664 -0.002333 -40.421139 -17.070568 -15.953556 71.997482 0.000028 0.233211 0.000000 14.998176 0.000000 
9.999443 34.838684 -39.388023 2.999769 -6.999762 111.998039 3.998284 4.997085 0.999400 9.997990 9.998402 -0.002413 17.997646 9.999015 -36.002522 -3.758408 4.997596 -0.001560 0.000000 0.000000 0.000000 -95.006790 -50.001049 2.002804 -130.001984 5.001027 -20.001692 24.997353 -12.001267 -0.003005 0.000000 0.000000 0.000000 77.353485 57.498993 -0.171961 91.995949 -0.000001 0.000001 -9.912910 -3.785661 -6.573194 -12.002582 -7.000328 -0.001224 32.000034 4.997984 -12.001928 24.999689 -11.001664 -0.002333 -40.277100 -17.075506 -16.040367 71.997543 0.000030 0.254412 0.000000 14.998176 0.000000 
9.999443 34.838684 -39.388023 2.999769 -6.999762 111.998047 3.998285 4.997085 0.999400 9.997990 9.998403 -0.002413 17.997648 9.999016 -36.002525 -4.406977 4.997664 -0.001492 0.000000 0.000000 0.000000 -95.006805 -50.001053 2.002807 -130.001984 5.001028 -20.001694 24.997355 -12.001267 -0.003005 0.000000 0.000000 0.000000 77.387634 59.225731 -0.179254 91.244392 -0.000001 0.000001 -9.495400 -3.658066 -7.115798 -12.002582 -7.000329 -0.001224 32.000038 4.997984 -12.001929 24.999691 -11.001665 -0.002333 -40.133007 -17.080235 -16.127203 71.997604 0.000032 0.275614 0.000000 14.998176 0.000000 
9.999443 34.838684 -39.388023 2.999769 -6.999761 111.998039 3.998284 4.997085 0.999400 9.997990 9.998401 -0.002413 17.997644 9.999014 -36.002522 -5.055713 4.997735 -0.001425 0.000000 0.000000 0.000000 -95.006790 -50.001045 2.002807 -130.001984 5.001027 -20.001692 24.997351 -12.001266 -0.003005 0.000000 0.000000 0.000000 77.423088 60.951660 -0.184827 90.492928 -0.000001 0.000001 -9.079212 -3.526545 -7.657341 -12.002582 -7.000328 -0.001224 32.000034 4.997984 -12.001928 24.999687 -11.001664 -0.002333 -39.988884 -17.084757 -16.214077 71.997681 0.000035 0.296815 0.000000 14.998176 0.000000 
9.999443 34.838684 -39.388023 2.999769 -6.999762 111.998039 3.998285 4.997086 0.999400 9.997990 9.998402 -0.002413 17.997648 9.999015 -36.002525 -5.704573 4.997805 -0.001359 0.000000 0.000000 0.000000 -95.006790 -50.001049 2.002804 -130.001984 5.001027 -20.001692 24.997353 -12.001268 -0.003005 0.000000 0.000000 0.000000 77.460274 62.676048 -0.188365 89.741562 -0.000000 0.000000 -8.664402 -3.391127 -8.197763 -12.002582 -7.000329 -0.001224 32.000034 4.997984 -12.001928 24.999689 -11.001664 -0.002333 -39.844730 -17.089071 -16.300978 71.997749 0.000037 0.318016 0.000000 14.998176 0.000000 
9.999443 34.838684 -39.388023 2.999768 -6.999761 111.998039 3.998284 4.997085 0.999400 9.997990 9.998402 -0.002413 17.997644 9.999014 -36.002522 -6.353514 4.997874 -0.001293 0.000000 0.000000 0.000000 -95.006775 -50.001045 2.002801 -130.001968 5.001027 -20.001690 24.997351 -12.001267 -0.003005 0.000000 0.000000 0.000000 77.499435 64.398094 -0.189558 88.990395 -0.000000 0.000000 -8.251032 -3.251842 -8.737001 -12.002581 -7.000328 -0.001224 32.000034 4.997984 -12.001928 24.999689 -11.001663 -0.002333 -39.700531 -17.093174 -16.387905 71.997810 0.000039 0.339217 0.000000 14.998177 0.000000 
9.999443 34.838684 -39.388023 2.999769 -6.999762 111.998039 3.998284 4.997085 0.999400 9.997990 9.998402 -0.002413 17.997646 9.999015 -36.002522 -7.002500 4.997947 -0.001228 0.000000 0.000000 0.000000 -95.006790 -50.001049 2.002804 -130.001984 5.001027 -20.001692 24.997353 -12.001267 -0.003005 0.000000 0.000000 0.000000 77.541069 66.117012 -0.187928 88.239494 -0.000000 0.000000 -7.839165 -3.108725 -9.274996 -12.002582 -7.000328 -0.001224 32.000038 4.997985 -12.001928 24.999689 -11.001664 -0.002333 -39.556297 -17.097071 -16.474863 71.997879 0.000041 0.360419 0.000000 14.998176 0.000000 
9.999443 34.838684 -39.388023 2.999769 -6.999762 111.998039 3.998284 4.997085 0.999400 9.997990 9.998401 -0.002413 17.997646 9.999015 -36.002522 -7.651484 4.998018 -0.001164 0.000000 0.000000 0.000000 -95.006790 -50.001049 2.002804 -130.001984 5.001027 -20.001690 24.997353 -12.001267 -0.003005 0.000000 0.000000 0.000000 77.585785 67.832077 -0.182900 87.488914 -0.000000 0.000000 -7.428857 -2.961807 -9.811688 -12.002580 -7.000328 -0.001224 32.000027 4.997984 -12.001927 24.999689 -11.001664 -0.002333 -39.412045 -17.100761 -16.561846 71.997948 0.000043 0.381620 0.000000 14.998176 0.000000 
